<svg id="star_05" xmlns="http://www.w3.org/2000/svg" xmlns:xlink="http://www.w3.org/1999/xlink" width="54.296"
    height="47.449" viewBox="0 0 54.296 47.449">
    <defs>
        <radialGradient id="radial-gradient" cx="0.5" cy="0.5" r="0.5" gradientUnits="objectBoundingBox">
            <stop offset="0" stop-color="#fff" />
            <stop offset="1" stop-color="#f30" />
        </radialGradient>
        <filter id="Icon_feather-star" x="5.899" y="5.549" width="43.12" height="41.9" filterUnits="userSpaceOnUse">
            <feOffset dy="2" input="SourceAlpha" />
            <feGaussianBlur stdDeviation="3" result="blur" />
            <feFlood flood-opacity="0.839" />
            <feComposite operator="in" in2="blur" />
            <feComposite in="SourceGraphic" />
        </filter>
        <filter id="Icon_feather-star-2" x="0" y="3.179" width="30.099" height="29.524" filterUnits="userSpaceOnUse">
            <feOffset dy="2" input="SourceAlpha" />
            <feGaussianBlur stdDeviation="3" result="blur-2" />
            <feFlood flood-opacity="0.839" />
            <feComposite operator="in" in2="blur-2" />
            <feComposite in="SourceGraphic" />
        </filter>
        <filter id="Icon_feather-star-3" x="22.819" y="1.435" width="24.525" height="24.22"
            filterUnits="userSpaceOnUse">
            <feOffset dy="2" input="SourceAlpha" />
            <feGaussianBlur stdDeviation="3" result="blur-3" />
            <feFlood flood-opacity="0.839" />
            <feComposite operator="in" in2="blur-3" />
            <feComposite in="SourceGraphic" />
        </filter>
        <filter id="Icon_feather-star-4" x="11.207" y="0" width="27.542" height="27.089" filterUnits="userSpaceOnUse">
            <feOffset dy="2" input="SourceAlpha" />
            <feGaussianBlur stdDeviation="3" result="blur-4" />
            <feFlood flood-opacity="0.839" />
            <feComposite operator="in" in2="blur-4" />
            <feComposite in="SourceGraphic" />
        </filter>
        <filter id="Icon_feather-star-5" x="31.414" y="5.549" width="22.882" height="22.654"
            filterUnits="userSpaceOnUse">
            <feOffset dy="2" input="SourceAlpha" />
            <feGaussianBlur stdDeviation="3" result="blur-5" />
            <feFlood flood-opacity="0.839" />
            <feComposite operator="in" in2="blur-5" />
            <feComposite in="SourceGraphic" />
        </filter>
    </defs>
    <g id="Group_5" data-name="Group 5" transform="translate(-94.951 -73.301)">
        <g id="Group_4" data-name="Group 4" transform="translate(110 86)">
            <g transform="matrix(1, 0, 0, 1, -15.05, -12.7)" filter="url(#Icon_feather-star)">
                <path id="Icon_feather-star-6" data-name="Icon feather-star"
                    d="M15.41,3l3.835,7.768,8.575,1.253-6.2,6.043L23.079,26.6,15.41,22.57,7.74,26.6,9.2,18.065,3,12.022l8.575-1.253Z"
                    transform="translate(12.05 9.7)" stroke="#000" stroke-linecap="round" stroke-linejoin="round"
                    stroke-width="0.3" fill="url(#radial-gradient)" />
            </g>
        </g>
    </g>
    <g id="Group_8" data-name="Group 8" transform="translate(-100.85 -75.671)">
        <g id="Group_4-2" data-name="Group 4" transform="translate(110 86)">
            <g transform="matrix(1, 0, 0, 1, -9.15, -10.33)" filter="url(#Icon_feather-star-2)">
                <path id="Icon_feather-star-7" data-name="Icon feather-star"
                    d="M8.9,3l1.823,3.693,4.076.6L11.85,10.166l.7,4.058L8.9,12.3,5.253,14.219l.7-4.058L3,7.288l4.076-.6Z"
                    transform="translate(6.15 7.33)" stroke="#000" stroke-linecap="round" stroke-linejoin="round"
                    stroke-width="0.3" fill="url(#radial-gradient)" />
            </g>
        </g>
    </g>
    <g id="Group_9" data-name="Group 9" transform="translate(-78.031 -77.415)">
        <g id="Group_4-3" data-name="Group 4" transform="translate(110 86)">
            <g transform="matrix(1, 0, 0, 1, -31.97, -8.58)" filter="url(#Icon_feather-star-3)">
                <path id="Icon_feather-star-8" data-name="Icon feather-star"
                    d="M6.112,3l.962,1.948,2.151.314L7.669,6.778,8.036,8.92,6.112,7.908,4.189,8.92l.367-2.141L3,5.263l2.151-.314Z"
                    transform="translate(28.97 5.58)" stroke="#000" stroke-linecap="round" stroke-linejoin="round"
                    stroke-width="0.3" fill="url(#radial-gradient)" />
            </g>
        </g>
    </g>
    <g id="Group_7" data-name="Group 7" transform="translate(-89.643 -78.85)">
        <g id="Group_4-4" data-name="Group 4" transform="translate(110 86)">
            <g transform="matrix(1, 0, 0, 1, -20.36, -7.15)" filter="url(#Icon_feather-star-4)">
                <path id="Icon_feather-star-9" data-name="Icon feather-star"
                    d="M7.621,3,9.049,5.893l3.193.467L9.931,8.61l.545,3.179-2.856-1.5-2.856,1.5L5.31,8.61,3,6.359l3.193-.467Z"
                    transform="translate(17.36 4.15)" stroke="#000" stroke-linecap="round" stroke-linejoin="round"
                    stroke-width="0.3" fill="url(#radial-gradient)" />
            </g>
        </g>
    </g>
    <g id="Group_10" data-name="Group 10" transform="translate(-69.436 -73.301)">
        <g id="Group_4-5" data-name="Group 4" transform="translate(110 86)">
            <g transform="matrix(1, 0, 0, 1, -40.56, -12.7)" filter="url(#Icon_feather-star-5)">
                <path id="Icon_feather-star-10" data-name="Icon feather-star"
                    d="M5.289,3,6,4.433l1.582.231L6.434,5.779,6.7,7.354,5.289,6.61l-1.415.744.27-1.575L3,4.664l1.582-.231Z"
                    transform="translate(37.56 9.7)" stroke="#000" stroke-linecap="round" stroke-linejoin="round"
                    stroke-width="0.3" fill="url(#radial-gradient)" />
            </g>
        </g>
    </g>
</svg>