<svg xmlns="http://www.w3.org/2000/svg" width="760" height="96">
    <style>
        line,
        path,
        circle,
        rect,
        polygon {
            stroke: white;
            stroke-width: 3;
            stroke-opacity: .8;
            fill-opacity: 0;
            stroke-linecap: round;
            stroke-linejoin: miter;
        }

        text {
            fill: white;
        }

        rect.backdrop {
            stroke: none;
            fill: none;
        }

        .broken {
            stroke-dasharray: 8;
        }

        .filled {
            fill: white;
        }

        .bg_filled {
            fill: none;
        }

        .nofill {
            fill: none;
        }

        text {
            font-family: monospace;
            font-size: 14px;
        }

        .end_marked_arrow {
            marker-end: url(#arrow);
        }

        .start_marked_arrow {
            marker-start: url(#arrow);
        }

        .end_marked_diamond {
            marker-end: url(#diamond);
        }

        .start_marked_diamond {
            marker-start: url(#diamond);
        }

        .end_marked_circle {
            marker-end: url(#circle);
        }

        .start_marked_circle {
            marker-start: url(#circle);
        }

        .end_marked_open_circle {
            marker-end: url(#open_circle);
        }

        .start_marked_open_circle {
            marker-start: url(#open_circle);
        }

        .end_marked_big_open_circle {
            marker-end: url(#big_open_circle);
        }

        .start_marked_big_open_circle {
            marker-start: url(#big_open_circle);
        }
    </style>
    <defs>
        <marker id="arrow" viewBox="-2 -2 8 8" refX="4" refY="2" markerWidth="7" markerHeight="7"
            orient="auto-start-reverse">
            <polygon points="0,0 0,4 4,2 0,0"></polygon>
        </marker>
        <marker id="diamond" viewBox="-2 -2 8 8" refX="4" refY="2" markerWidth="7" markerHeight="7"
            orient="auto-start-reverse">
            <polygon points="0,2 2,0 4,2 2,4 0,2"></polygon>
        </marker>
        <marker id="circle" viewBox="0 0 8 8" refX="4" refY="4" markerWidth="7" markerHeight="7"
            orient="auto-start-reverse">
            <circle cx="4" cy="4" r="2" class="filled"></circle>
        </marker>
        <marker id="open_circle" viewBox="0 0 8 8" refX="4" refY="4" markerWidth="7" markerHeight="7"
            orient="auto-start-reverse">
            <circle cx="4" cy="4" r="2" class="bg_filled"></circle>
        </marker>
        <marker id="big_open_circle" viewBox="0 0 8 8" refX="4" refY="4" markerWidth="7" markerHeight="7"
            orient="auto-start-reverse">
            <circle cx="4" cy="4" r="3" class="bg_filled"></circle>
        </marker>
    </defs>
    <rect class="backdrop" x="0" y="0" width="760" height="96"></rect>
    <line x1="32" y1="32" x2="48" y2="32" class="solid"></line>
    <text x="114" y="28" class="">"</text>
    <line x1="120" y1="24" x2="128" y2="24" class="solid"></line>
    <text x="130" y="28" class="">.</text>
    <text x="138" y="44" class="">.</text>
    <text x="146" y="60" class="">"</text>
    <text x="266" y="28" class="">"</text>
    <line x1="272" y1="24" x2="280" y2="24" class="solid"></line>
    <text x="282" y="28" class="">.</text>
    <g>
        <line x1="8" y1="16" x2="56" y2="16" class="solid"></line>
        <line x1="8" y1="16" x2="0" y2="32" class="solid"></line>
        <line x1="8" y1="16" x2="32" y2="64" class="solid"></line>
        <line x1="56" y1="16" x2="80" y2="64" class="solid"></line>
        <line x1="0" y1="32" x2="24" y2="80" class="solid"></line>
        <line x1="32" y1="64" x2="48" y2="64" class="solid"></line>
        <line x1="32" y1="64" x2="24" y2="80" class="solid"></line>
        <line x1="24" y1="80" x2="40" y2="80" class="solid"></line>
        <line x1="40" y1="48" x2="56" y2="48" class="solid"></line>
        <line x1="40" y1="48" x2="56" y2="80" class="solid"></line>
        <line x1="56" y1="48" x2="64" y2="64" class="solid"></line>
        <line x1="64" y1="64" x2="80" y2="64" class="solid"></line>
        <line x1="48" y1="64" x2="40" y2="80" class="solid"></line>
        <line x1="64" y1="64" x2="56" y2="80" class="solid"></line>
        <line x1="56" y1="80" x2="72" y2="80" class="solid"></line>
        <line x1="80" y1="64" x2="72" y2="80" class="solid"></line>
    </g>
    <g>
        <line x1="96" y1="16" x2="112" y2="16" class="solid"></line>
        <line x1="96" y1="16" x2="88" y2="32" class="solid"></line>
        <line x1="96" y1="16" x2="120" y2="64" class="solid"></line>
        <line x1="88" y1="32" x2="112" y2="80" class="solid"></line>
        <line x1="120" y1="32" x2="136" y2="64" class="solid"></line>
        <line x1="124" y1="40" x2="136" y2="40" class="solid"></line>
        <line x1="120" y1="64" x2="136" y2="64" class="solid"></line>
        <line x1="120" y1="64" x2="112" y2="80" class="solid"></line>
        <line x1="112" y1="80" x2="128" y2="80" class="solid"></line>
        <line x1="136" y1="64" x2="128" y2="80" class="solid"></line>
    </g>
    <g>
        <line x1="136" y1="16" x2="152" y2="16" class="solid"></line>
        <line x1="136" y1="16" x2="144" y2="32" class="solid"></line>
        <line x1="152" y1="16" x2="176" y2="64" class="solid"></line>
        <line x1="152" y1="48" x2="160" y2="64" class="solid"></line>
        <line x1="160" y1="64" x2="176" y2="64" class="solid"></line>
        <line x1="160" y1="64" x2="152" y2="80" class="solid"></line>
        <line x1="152" y1="80" x2="168" y2="80" class="solid"></line>
        <line x1="176" y1="64" x2="168" y2="80" class="solid"></line>
        <line x1="136" y1="48" x2="152" y2="80" class="solid"></line>
    </g>
    <g>
        <line x1="192" y1="16" x2="208" y2="16" class="solid"></line>
        <line x1="192" y1="16" x2="184" y2="32" class="solid"></line>
        <line x1="192" y1="16" x2="216" y2="64" class="solid"></line>
        <line x1="208" y1="16" x2="232" y2="64" class="solid"></line>
        <line x1="184" y1="32" x2="208" y2="80" class="solid"></line>
        <line x1="216" y1="64" x2="232" y2="64" class="solid"></line>
        <line x1="216" y1="64" x2="208" y2="80" class="solid"></line>
        <line x1="208" y1="80" x2="224" y2="80" class="solid"></line>
        <line x1="232" y1="64" x2="224" y2="80" class="solid"></line>
    </g>
    <g>
        <line x1="248" y1="16" x2="264" y2="16" class="solid"></line>
        <line x1="248" y1="16" x2="240" y2="32" class="solid"></line>
        <line x1="248" y1="16" x2="272" y2="64" class="solid"></line>
        <line x1="240" y1="32" x2="264" y2="80" class="solid"></line>
        <line x1="272" y1="32" x2="288" y2="64" class="solid"></line>
        <line x1="276" y1="40" x2="288" y2="40" class="solid"></line>
        <path d="M 288,40 A 8,8 0,0,1 294,44" class="nofill"></path>
        <line x1="294" y1="44" x2="312" y2="80" class="solid"></line>
        <line x1="304" y1="32" x2="296" y2="48" class="solid"></line>
        <line x1="304" y1="32" x2="320" y2="64" class="solid"></line>
        <line x1="272" y1="64" x2="288" y2="64" class="solid"></line>
        <line x1="320" y1="64" x2="336" y2="64" class="solid"></line>
        <line x1="272" y1="64" x2="264" y2="80" class="solid"></line>
        <line x1="264" y1="80" x2="280" y2="80" class="solid"></line>
        <line x1="288" y1="64" x2="280" y2="80" class="solid"></line>
        <line x1="320" y1="64" x2="312" y2="80" class="solid"></line>
        <line x1="312" y1="80" x2="328" y2="80" class="solid"></line>
        <line x1="336" y1="64" x2="328" y2="80" class="solid"></line>
        <line x1="296" y1="16" x2="312" y2="16" class="solid"></line>
        <line x1="296" y1="16" x2="288" y2="32" class="solid"></line>
        <line x1="312" y1="16" x2="336" y2="64" class="solid"></line>
    </g>
    <g>
        <line x1="352" y1="16" x2="400" y2="16" class="solid"></line>
        <line x1="352" y1="16" x2="344" y2="32" class="solid"></line>
        <line x1="352" y1="16" x2="376" y2="64" class="solid"></line>
        <line x1="344" y1="32" x2="368" y2="80" class="solid"></line>
        <line x1="376" y1="64" x2="424" y2="64" class="solid"></line>
        <line x1="416" y1="48" x2="424" y2="64" class="solid"></line>
        <line x1="376" y1="64" x2="368" y2="80" class="solid"></line>
        <line x1="368" y1="80" x2="416" y2="80" class="solid"></line>
        <line x1="424" y1="64" x2="416" y2="80" class="solid"></line>
        <line x1="376" y1="32" x2="408" y2="32" class="solid"></line>
        <line x1="400" y1="16" x2="408" y2="32" class="solid"></line>
        <line x1="384" y1="48" x2="408" y2="48" class="solid"></line>
        <line x1="400" y1="32" x2="408" y2="48" class="solid"></line>
    </g>
    <g>
        <line x1="464" y1="16" x2="480" y2="16" class="solid"></line>
        <line x1="464" y1="16" x2="456" y2="32" class="solid"></line>
        <line x1="464" y1="16" x2="488" y2="64" class="solid"></line>
        <line x1="480" y1="16" x2="496" y2="48" class="solid"></line>
        <line x1="456" y1="32" x2="480" y2="80" class="solid"></line>
        <line x1="496" y1="48" x2="528" y2="48" class="solid"></line>
        <line x1="488" y1="64" x2="536" y2="64" class="solid"></line>
        <line x1="528" y1="48" x2="536" y2="64" class="solid"></line>
        <line x1="488" y1="64" x2="480" y2="80" class="solid"></line>
        <line x1="480" y1="80" x2="528" y2="80" class="solid"></line>
        <line x1="536" y1="64" x2="528" y2="80" class="solid"></line>
    </g>
    <g>
        <line x1="552" y1="16" x2="568" y2="16" class="solid"></line>
        <line x1="552" y1="16" x2="544" y2="32" class="solid"></line>
        <line x1="552" y1="16" x2="576" y2="64" class="solid"></line>
        <line x1="568" y1="16" x2="592" y2="64" class="solid"></line>
        <line x1="544" y1="32" x2="568" y2="80" class="solid"></line>
        <line x1="576" y1="64" x2="592" y2="64" class="solid"></line>
        <line x1="576" y1="64" x2="568" y2="80" class="solid"></line>
        <line x1="568" y1="80" x2="584" y2="80" class="solid"></line>
        <line x1="592" y1="64" x2="584" y2="80" class="solid"></line>
    </g>
    <g>
        <line x1="608" y1="16" x2="656" y2="16" class="solid"></line>
        <line x1="608" y1="16" x2="600" y2="32" class="solid"></line>
        <line x1="608" y1="16" x2="632" y2="64" class="solid"></line>
        <line x1="600" y1="32" x2="624" y2="80" class="solid"></line>
        <line x1="624" y1="48" x2="648" y2="48" class="solid"></line>
        <line x1="624" y1="48" x2="616" y2="64" class="solid"></line>
        <line x1="632" y1="32" x2="664" y2="32" class="solid"></line>
        <line x1="656" y1="16" x2="680" y2="64" class="solid"></line>
        <line x1="632" y1="64" x2="680" y2="64" class="solid"></line>
        <line x1="632" y1="64" x2="624" y2="80" class="solid"></line>
        <line x1="624" y1="80" x2="672" y2="80" class="solid"></line>
        <line x1="680" y1="64" x2="672" y2="80" class="solid"></line>
    </g>
    <g>
        <line x1="696" y1="16" x2="744" y2="16" class="solid"></line>
        <line x1="696" y1="16" x2="688" y2="32" class="solid"></line>
        <line x1="696" y1="16" x2="704" y2="32" class="solid"></line>
        <line x1="704" y1="32" x2="720" y2="32" class="solid"></line>
        <line x1="688" y1="32" x2="696" y2="48" class="solid"></line>
        <line x1="704" y1="32" x2="696" y2="48" class="solid"></line>
        <line x1="696" y1="48" x2="712" y2="48" class="solid"></line>
        <line x1="720" y1="32" x2="712" y2="48" class="solid"></line>
        <line x1="720" y1="32" x2="736" y2="64" class="solid"></line>
        <line x1="712" y1="48" x2="728" y2="80" class="solid"></line>
        <line x1="736" y1="32" x2="752" y2="32" class="solid"></line>
        <line x1="744" y1="16" x2="752" y2="32" class="solid"></line>
        <line x1="736" y1="32" x2="752" y2="64" class="solid"></line>
        <line x1="752" y1="32" x2="744" y2="48" class="solid"></line>
        <line x1="736" y1="64" x2="752" y2="64" class="solid"></line>
        <line x1="736" y1="64" x2="728" y2="80" class="solid"></line>
        <line x1="728" y1="80" x2="744" y2="80" class="solid"></line>
        <line x1="752" y1="64" x2="744" y2="80" class="solid"></line>
    </g>
</svg>